<?xml version="1.0" encoding="utf-8"?>
<!-- Generator: Adobe Illustrator 19.0.0, SVG Export Plug-In . SVG Version: 6.00 Build 0)  -->
<svg version="1.1" id="Layer_1" xmlns="http://www.w3.org/2000/svg" xmlns:xlink="http://www.w3.org/1999/xlink" x="0px" y="0px"
	 viewBox="0 0 1919 1080" style="enable-background:new 0 0 1919 1080;" xml:space="preserve">
<style type="text/css">
	.st0{fill:#FFFFFF;}
</style>
<path d="M1112.8,864.1H816.4c-30.5,0-55.4-24.9-55.4-55.4V515.6c0-30.5,24.9-55.4,55.4-55.4h273.3c30.5,0,55.4,24.9,55.4,55.4v316.3
	C1145,849.6,1130.5,864.1,1112.8,864.1z"/>
<path class="st0" d="M1085,830.2H821c-6.6,0-12-5.4-12-12v-312c0-6.6,5.4-12,12-12h264c6.6,0,12,5.4,12,12v312
	C1097,824.8,1091.6,830.2,1085,830.2z"/>
<path d="M1018.1,792.3h-24c-6.6,0-12-5.4-12-12v-216c0-6.6,5.4-12,12-12h24c6.6,0,12,5.4,12,12v216
	C1030.1,786.9,1024.7,792.3,1018.1,792.3z"/>
<path d="M901.5,792.3h-24c-6.6,0-12-5.4-12-12v-216c0-6.6,5.4-12,12-12h24c6.6,0,12,5.4,12,12v216
	C913.5,786.9,908.1,792.3,901.5,792.3z"/>
<path id="XMLID_4_" d="M970.4,260.9l-9,9.4c-4.6,4.8-4.4,12.4,0.4,17l102.2,97.9c4.8,4.6,12.4,4.4,17-0.4l9-9.4
	c4.6-4.8,4.4-12.4-0.4-17l-102.2-97.9"/>
<path id="XMLID_3_" d="M1076.1,350.4L1076.1,350.4c-11.8-2.2-23.2,5.5-25.4,17.3l-11,58.2c-2.2,11.8,5.5,23.2,17.3,25.4l0,0
	c11.8,2.2,23.2-5.5,25.4-17.3l11-58.2C1095.7,364.1,1087.9,352.7,1076.1,350.4z"/>
<path id="XMLID_2_" d="M972.5,259.9l-58.6,9c-11.9,1.8-20,12.9-18.2,24.8v0c1.8,11.9,12.9,20,24.8,18.2l58.6-9
	c11.9-1.8,20-12.9,18.2-24.8l0,0C995.5,266.2,984.4,258,972.5,259.9"/>
<path id="XMLID_1_" d="M809.4,210.5c-9.3,9.9-8.9,25.4,1,34.7l293.2,277.4c9.9,9.3,25.4,8.9,34.7-1l0,0c9.3-9.9,8.9-25.4-1-34.7
	L844.1,209.5"/>
</svg>
