<?xml version="1.0" encoding="utf-8"?>
<!-- Generator: Adobe Illustrator 19.0.0, SVG Export Plug-In . SVG Version: 6.00 Build 0)  -->
<svg version="1.1" id="Capa_1" xmlns="http://www.w3.org/2000/svg" xmlns:xlink="http://www.w3.org/1999/xlink" x="0px" y="0px"
	 viewBox="-714 296.3 489.7 489.7" style="enable-background:new -714 296.3 489.7 489.7;" xml:space="preserve">
<style type="text/css">
	.st0{stroke:#FFFFFF;stroke-width:2;stroke-miterlimit:10;}
	.st1{stroke:#000000;stroke-width:10;stroke-miterlimit:10;}
</style>
<g>
	<g>
		<path class="st0" d="M-367.5,475.3h-252.3c-3.7,0-6.7,3-6.7,6.8v271.7c0,3.7,3,6.8,6.7,6.8h245.5c3.7,0,6.8-3,6.8-6.8V475.3
			L-367.5,475.3z M-564.4,721.5L-564.4,721.5c-3.7,0-6.8-3-6.8-6.8V520.9c0-3.7,3-6.8,6.8-6.8h0c3.7,0,6.7,3,6.8,6.8v193.8
			C-557.7,718.5-560.7,721.5-564.4,721.5z M-496.9,721.5L-496.9,721.5c-3.7,0-6.8-3-6.8-6.8V520.9c0-3.7,3-6.8,6.8-6.8l0,0
			c3.7,0,6.8,3,6.8,6.8v193.8C-490.2,718.5-493.2,721.5-496.9,721.5z M-429.5,721.5L-429.5,721.5c-3.7,0-6.8-3-6.8-6.8V520.9
			c0-3.7,3-6.8,6.8-6.8l0,0c3.7,0,6.8,3,6.8,6.8v193.8C-422.8,718.5-425.8,721.5-429.5,721.5z"/>
		<path class="st1" d="M-345.8,412.1l-27-15.5c-6.7-3.8-8.9-12.4-5-19l13.9-23.5c3.9-6.6,1.6-15.2-5-19l-91.1-52.2
			c-6.6-3.8-14.9-1.5-18.7,5l-14.3,24.1c-3.8,6.5-12.2,8.7-18.7,5l-33.7-19.3c-6.1-3.5-13.7-1.9-17.9,3.7l-18.8,25.1
			c-5,6.6-3,16.1,4.2,20.2l199.8,114.3c6,3.5,13.7,1.9,17.9-3.7l18.7-25C-336.6,425.8-338.6,416.3-345.8,412.1z M-450.4,319.4
			l44.5,25.5c6.7,3.8,8.9,12.4,5,19l-0.5,0.9c-3.8,6.5-12.2,8.7-18.7,4.9l-44.5-25.5c-6.7-3.8-8.9-12.4-5-19l0.5-0.9
			C-465.3,317.8-457,315.6-450.4,319.4z"/>
	</g>
</g>
</svg>
